<svg width="12" height="20" viewBox="0 0 12 20" fill="none" xmlns="http://www.w3.org/2000/svg">
<path d="M11.1124 17.2629C11.3413 17.4918 11.47 17.8023 11.47 18.1261C11.47 18.4499 11.3413 18.7605 11.1124 18.9894C10.8834 19.2184 10.5729 19.347 10.2491 19.347C9.92529 19.347 9.61476 19.2184 9.38581 18.9894L1.2608 10.8644C1.14718 10.7512 1.05703 10.6167 0.995521 10.4685C0.934008 10.3204 0.902344 10.1615 0.902344 10.0011C0.902344 9.84073 0.934008 9.68191 0.995521 9.53377C1.05703 9.38562 1.14718 9.25108 1.2608 9.13786L9.38581 1.01286C9.61476 0.7839 9.92529 0.655273 10.2491 0.655273C10.5729 0.655273 10.8834 0.7839 11.1124 1.01286C11.3413 1.24181 11.47 1.55234 11.47 1.87614C11.47 2.19993 11.3413 2.51046 11.1124 2.73942L3.85166 10.0001L11.1124 17.2629Z" fill="black"/>
</svg>
