<svg width="12" height="20" viewBox="0 0 12 20" fill="none" xmlns="http://www.w3.org/2000/svg">
<path d="M10.7375 10.8622L2.61247 18.9872C2.38351 19.2162 2.07298 19.3448 1.74918 19.3448C1.42539 19.3448 1.11486 19.2162 0.885903 18.9872C0.656946 18.7583 0.52832 18.4477 0.52832 18.1239C0.52832 17.8001 0.656946 17.4896 0.885903 17.2607L8.14864 9.99996L0.887935 2.73722C0.774567 2.62385 0.684638 2.48927 0.623284 2.34114C0.56193 2.19302 0.530351 2.03427 0.530351 1.87394C0.530351 1.71361 0.56193 1.55486 0.623284 1.40674C0.684638 1.25861 0.774567 1.12403 0.887935 1.01066C1.0013 0.897291 1.13589 0.807363 1.28401 0.746009C1.43213 0.684655 1.59089 0.653076 1.75122 0.653076C1.91154 0.653076 2.0703 0.684655 2.21842 0.746009C2.36654 0.807363 2.50113 0.897291 2.6145 1.01066L10.7395 9.13566C10.853 9.24902 10.943 9.38367 11.0043 9.53188C11.0657 9.68009 11.0971 9.83896 11.0969 9.99936C11.0968 10.1598 11.0649 10.3186 11.0032 10.4666C10.9415 10.6147 10.8512 10.7491 10.7375 10.8622Z" fill="black"/>
</svg>
